<?xml version="1.0" encoding="utf-8"?>
<!-- Generator: Adobe Illustrator 27.7.0, SVG Export Plug-In . SVG Version: 6.00 Build 0)  -->
<svg version="1.1" id="Layer_1" xmlns="http://www.w3.org/2000/svg" xmlns:xlink="http://www.w3.org/1999/xlink" x="0px" y="0px"
	 viewBox="0 0 1212.1 250.9" style="enable-background:new 0 0 1212.1 250.9;" xml:space="preserve">
<style type="text/css">
	.st0{fill:#02020A;}
	.st1{fill:#0073FF;}
</style>
<g>
	<g>
		<path class="st0" d="M428.3,129c-4.3-3.5-9.2-6.4-14.5-8.7c-5.4-2.3-11-4.2-16.8-5.5l-14.4-3.6c-4.2-1.1-8.3-2.5-12.4-4.1
			c-4-1.7-7.4-3.9-9.9-6.6c-2.6-2.7-3.9-6.2-3.9-10.5c0-3.9,1.1-7.3,3.3-10.4c2.2-3,5.4-5.4,9.6-7.2c4.2-1.7,9.2-2.6,15-2.6
			c8.4,0,15.1,1.8,20.2,5.4c5.1,3.6,8.1,8.8,8.8,15.4h27c-0.2-8.7-2.7-16.4-7.4-23.1c-4.7-6.7-11.2-12-19.5-15.8
			c-8.3-3.8-17.9-5.7-28.9-5.7c-10.8,0-20.4,1.9-28.9,5.7c-8.5,3.8-15.2,9.1-20.1,15.9c-4.9,6.8-7.4,14.8-7.4,23.9
			c0,11.1,3.7,20,11,26.7c7.3,6.7,17.3,11.6,30,14.9l17.5,4.6c5.6,1.4,10.5,3,14.6,4.8c4.1,1.8,7.4,4,9.7,6.6
			c2.3,2.6,3.5,5.9,3.5,9.9c0,4.4-1.3,8.3-3.9,11.6c-2.6,3.3-6.2,5.9-10.9,7.8c-4.6,1.9-10,2.8-16,2.8c-5.8,0-11.1-0.9-15.8-2.7
			c-4.7-1.8-8.5-4.5-11.4-8c-2.9-3.6-4.6-8-5-13.4h-27.5c0.4,10.2,3.1,18.9,8.1,26.1c5,7.2,11.9,12.6,20.7,16.3
			c8.8,3.7,19.3,5.6,31.3,5.6c12.3,0,22.8-1.9,31.5-5.8c8.7-3.9,15.4-9.2,20-16.1c4.6-6.9,6.9-14.8,6.9-23.8
			c0-6.7-1.3-12.6-3.8-17.5C436.1,136.7,432.6,132.5,428.3,129z"/>
		<polygon class="st0" points="560.6,86.6 528.7,86.6 487.2,133.2 485.2,133.2 485.2,48 458,48 458,202.6 485.2,202.6 485.2,163.7 
			495.1,153 530.6,202.6 563.2,202.6 515.8,136.7 		"/>
		<path class="st0" d="M652.6,99.1c-4.9-4.8-10.6-8.3-17-10.6c-6.4-2.3-13.1-3.4-20.2-3.4c-11,0-20.6,2.5-28.8,7.6
			c-8.1,5.1-14.5,12.1-18.9,21.1c-4.5,9-6.7,19.5-6.7,31.5c0,12.1,2.3,22.6,6.8,31.5c4.5,8.9,11,15.8,19.4,20.7
			c8.4,4.9,18.4,7.3,30,7.3c9,0,16.9-1.4,23.9-4.1c6.9-2.7,12.6-6.6,17.1-11.6c4.5-5,7.5-10.9,9.2-17.6l-25.5-3
			c-1.2,3.3-3,6.1-5.3,8.4c-2.3,2.2-5.1,3.9-8.3,5c-3.2,1.1-6.7,1.7-10.6,1.7c-5.9,0-11.1-1.3-15.6-3.9c-4.5-2.6-7.9-6.4-10.4-11.5
			c-2.2-4.5-3.4-9.9-3.6-16h80.5v-8.5c0-10.2-1.4-18.9-4.2-26.3C661.4,110,657.5,103.9,652.6,99.1z M600.6,110.6
			c4.1-2.8,9.1-4.1,15-4.1s10.8,1.4,14.7,4.1c3.9,2.8,6.9,6.6,8.9,11.5c1.4,3.5,2.3,7.4,2.8,11.8h-53.9c0.4-4.4,1.4-8.4,3.1-12.1
			C593.3,117,596.4,113.3,600.6,110.6z"/>
		<path class="st0" d="M769.9,99.1c-4.9-4.8-10.6-8.3-17-10.6c-6.4-2.3-13.1-3.4-20.2-3.4c-11,0-20.6,2.5-28.8,7.6
			c-8.1,5.1-14.5,12.1-18.9,21.1c-4.5,9-6.7,19.5-6.7,31.5c0,12.1,2.3,22.6,6.8,31.5c4.5,8.9,11,15.8,19.4,20.7
			c8.4,4.9,18.4,7.3,30,7.3c9,0,16.9-1.4,23.9-4.1c6.9-2.7,12.6-6.6,17.1-11.6c4.5-5,7.5-10.9,9.2-17.6l-25.5-3
			c-1.2,3.3-3,6.1-5.3,8.4c-2.3,2.2-5.1,3.9-8.3,5c-3.2,1.1-6.7,1.7-10.6,1.7c-5.9,0-11.1-1.3-15.6-3.9c-4.5-2.6-7.9-6.4-10.4-11.5
			c-2.2-4.5-3.4-9.9-3.6-16h80.5v-8.5c0-10.2-1.4-18.9-4.2-26.3C778.7,110,774.9,103.9,769.9,99.1z M717.9,110.6
			c4.1-2.8,9.1-4.1,15-4.1c5.9,0,10.8,1.4,14.7,4.1c3.9,2.8,6.9,6.6,8.9,11.5c1.4,3.5,2.3,7.4,2.8,11.8h-53.9
			c0.4-4.4,1.4-8.4,3.1-12.1C710.6,117,713.8,113.3,717.9,110.6z"/>
		<path class="st0" d="M886.2,92c-7.2-4.6-15.2-6.8-24.1-6.8c-6.8,0-12.4,1.1-16.8,3.4c-4.4,2.3-7.9,5-10.4,8.2
			c-2.6,3.2-4.5,6.2-5.9,9h-1.7V86.6h-26.7v159.3h27.2v-61.7h1.1c1.4,2.8,3.4,5.8,6.1,9c2.7,3.1,6.2,5.8,10.6,8.1
			c4.4,2.2,9.9,3.4,16.4,3.4c9.1,0,17.3-2.3,24.5-7c7.2-4.7,12.9-11.5,17-20.4c4.1-8.9,6.2-19.7,6.2-32.5c0-12.9-2.1-23.8-6.4-32.7
			C899.1,103.3,893.3,96.6,886.2,92z M878.7,164c-2.1,5.7-5.1,10.1-9.2,13.4c-4,3.3-9.1,4.9-15.1,4.9c-5.8,0-10.7-1.6-14.8-4.7
			c-4.1-3.1-7.2-7.5-9.3-13.2c-2.1-5.6-3.2-12.2-3.2-19.7c0-7.5,1.1-14.1,3.2-19.7c2.1-5.6,5.2-9.9,9.2-12.9c4-3,9-4.6,14.9-4.6
			c6.1,0,11.1,1.6,15.1,4.8c4,3.2,7,7.6,9.1,13.2c2.1,5.6,3.1,12,3.1,19.2C881.8,151.9,880.8,158.3,878.7,164z"/>
		<path class="st0" d="M1011.5,99.1c-4.9-4.8-10.6-8.3-17-10.6c-6.4-2.3-13.1-3.4-20.2-3.4c-11,0-20.6,2.5-28.8,7.6
			c-8.1,5.1-14.5,12.1-18.9,21.1c-4.5,9-6.7,19.5-6.7,31.5c0,12.1,2.3,22.6,6.8,31.5c4.5,8.9,11,15.8,19.4,20.7
			c8.4,4.9,18.4,7.3,30,7.3c9,0,16.9-1.4,23.9-4.1c6.9-2.7,12.6-6.6,17.1-11.6c4.5-5,7.5-10.9,9.2-17.6l-25.5-3
			c-1.2,3.3-3,6.1-5.3,8.4c-2.3,2.2-5.1,3.9-8.3,5c-3.2,1.1-6.7,1.7-10.6,1.7c-5.9,0-11.1-1.3-15.6-3.9c-4.5-2.6-7.9-6.4-10.4-11.5
			c-2.2-4.5-3.4-9.9-3.6-16h80.5v-8.5c0-10.2-1.4-18.9-4.2-26.3C1020.3,110,1016.4,103.9,1011.5,99.1z M959.5,110.6
			c4.1-2.8,9.1-4.1,15-4.1s10.8,1.4,14.7,4.1c3.9,2.8,6.9,6.6,8.9,11.5c1.4,3.5,2.3,7.4,2.8,11.8H947c0.4-4.4,1.4-8.4,3.1-12.1
			C952.2,117,955.3,113.3,959.5,110.6z"/>
		<path class="st0" d="M1098.3,85c-6.6,0-12.5,1.8-17.7,5.4c-5.2,3.6-8.8,8.8-10.9,15.6h-1.2V86.6h-26.4v116h27.2v-68
			c0-5,1.1-9.3,3.4-13.1c2.2-3.7,5.3-6.7,9.3-8.8c3.9-2.1,8.4-3.2,13.5-3.2c2.3,0,4.7,0.1,7.1,0.4c2.5,0.3,4.3,0.6,5.5,1V85.8
			c-1.2-0.2-2.8-0.4-4.7-0.5C1101.5,85.1,1099.8,85,1098.3,85z"/>
		<path class="st0" d="M1204.1,147.7c-5.4-5.2-13.5-8.9-24.3-11.2l-19.8-4.1c-5.9-1.3-10.1-3.1-12.6-5.2c-2.5-2.2-3.8-5-3.8-8.4
			c0-3.9,1.9-7.1,5.7-9.5c3.8-2.5,8.6-3.7,14.2-3.7c6.3,0,11.1,1.5,14.6,4.4c3.5,2.9,5.7,6.3,6.7,10.1l24.7-2.6
			c-1.9-9.8-6.7-17.6-14.4-23.5c-7.8-5.8-18.4-8.8-32-8.8c-9.3,0-17.4,1.5-24.4,4.4c-7,2.9-12.5,7-16.5,12.2
			c-3.9,5.3-5.9,11.5-5.9,18.7c0,8.4,2.7,15.4,8,20.8c5.3,5.4,13.5,9.4,24.6,11.8l19.8,4.2c10.4,2.3,15.5,6.8,15.5,13.3
			c0,3.9-2,7.1-5.9,9.8c-3.9,2.7-9.1,4-15.6,4c-6.2,0-11.3-1.3-15.3-4c-4-2.7-6.5-6.6-7.7-11.8l-26.6,2.5c1.7,10.6,6.9,19,15.5,24.9
			c8.6,6,20,9,34.1,9c9.7,0,18.2-1.6,25.6-4.7c7.4-3.1,13.2-7.5,17.4-13.1c4.2-5.6,6.3-12,6.3-19.3
			C1212.1,159.6,1209.4,152.9,1204.1,147.7z"/>
	</g>
	<g>
		<circle class="st1" cx="209.1" cy="41.8" r="41.8"/>
		<circle class="st1" cx="41.8" cy="209.1" r="41.8"/>
		<path class="st1" d="M167.3,0H83.6C37.4,0,0,37.4,0,83.6c0,46.2,37.4,83.6,83.6,83.6V83.6h83.6V0z"/>
		<path class="st1" d="M167.3,83.6v83.6H83.6v83.6l83.6,0v0c46.2,0,83.6-37.4,83.6-83.6C250.9,121.1,213.4,83.6,167.3,83.6z"/>
	</g>
</g>
</svg>
